<svg xmlns="http://www.w3.org/2000/svg" xmlns:xlink="http://www.w3.org/1999/xlink" viewBox="0 0 300 140.1" xmlns:v="https://vecta.io/nano"><g transform="translate(-89 -246)"><linearGradient id="A" gradientUnits="userSpaceOnUse" x1="2269.439" y1="186.076" x2="2269.7" y2="186.041" gradientTransform="matrix(67 0 0 -24 -151913.5469 4771.4053)"><stop offset="0" stop-color="#3d3e98"/><stop offset=".1" stop-color="#47429b"/><stop offset=".2" stop-color="#54469c"/><stop offset=".3" stop-color="#5f4b9f"/><stop offset=".4" stop-color="#6a4fa0"/><stop offset=".5" stop-color="#7554a3"/><stop offset=".6" stop-color="#8058a4"/><stop offset=".7" stop-color="#8b5da7"/><stop offset=".8" stop-color="#9864aa"/><stop offset=".9" stop-color="#a56cad"/><stop offset="1" stop-color="#b273b0"/></linearGradient><path d="M120 294.3h63a1.97 1.97 0 0 1 1.9 1.9v20c0 1.1-.9 1.9-1.9 1.9h-63c-1 0-2-.9-2-1.9v-19.9c-.1-1.1.8-2 2-2z" fill="url(#A)"/><path d="M119 294.3H94c-1 0-2 .9-2 1.9v20c0 1.1.9 1.9 2 1.9h25c1 0 2-.9 2-1.9v-19.9c-.1-1.1-1-2-2-2z" fill="#58479d"/><path d="M120.9,294.3v24" fill="none" stroke="#e8dded"/><path d="M103.1 310.4c1.8 0 2.8-1.1 2.8-2.4 0-2.7-3.9-1.9-3.9-3.3 0-.4.3-.8.8-.8h.1c.5 0 .9.3.9.8h0 2.1c-.2-1.5-1.2-2.4-3-2.4-1.6 0-2.8.9-2.8 2.2 0 2.8 3.9 1.9 3.9 3.4 0 .4-.3.8-.9.8-.5 0-.9-.3-.9-.9h0-2c-.1 1.7 1.1 2.6 2.9 2.6h0zm8.2-.2v-2.6l2.7-5.2h-2.1l-1.5 3.3-1.5-3.3h-2.1l2.7 5.2v2.6h1.8zm21.8 0v-1.5h-3.3v-1.9h2.7v-1.5h-2.7v-1.9h3.1v-1.5H128v8.4l5.1-.1h0zm2.5 0l1-2.1h0l1.1 2.1h1.9l-2.1-3.4 1.9-3.3h-2.1l-.8 1.9h0l-1-1.9h-2l2 3.3-2.1 3.4h2.2 0zm7.4.2c.9.1 2-.3 2.4-1.1l-1.2-1.1c-.3.4-.8.6-1.2.6-.9 0-1.2-.6-1.2-2.1s.5-1.9 1.4-1.9c.4 0 .9.3 1.2.6l1.2-1.2c-.6-.8-1.5-1.1-2.4-1.1-1.8 0-3.2 1.2-3.2 3.6 0 2.8 1.2 3.7 3 3.7h0zm5.1 0c.3 0 .6 0 .9-.2v-1.5h-.3c-.3 0-.6-.1-.6-.6v-6.9h-1.8v7.5c-.1.9.6 1.7 1.5 1.8 0-.1.1-.1.3-.1h0 0zm3.9 0c.8 0 1.3-.3 1.8-.8h0l.3.6h1.5v-6.8h-1.8v4.7c-.1.4-.6.8-1.2.8s-.9-.4-.9-1.2v-4.4h-1.8v4.5c-.2 1.8.6 2.6 2.1 2.6h0 0zm7 0c2 0 2.7-1.2 2.7-2.1 0-2.2-3.2-1.9-3.2-3a.65.65 0 0 1 .6-.6c.4 0 1 .3 1.3.6l1.2-1.2c-.6-.6-1.5-1.1-2.4-.9-1.2-.2-2.4.8-2.5 1.9v.1c0 2.2 3.2 1.9 3.2 2.9 0 .3-.2.6-.8.6-.8 0-1.3-.3-1.8-.9l-1 1.2c.8 1.1 1.7 1.5 2.7 1.4h0zm4.7-7.7c.6 0 1.1-.4 1.1-1h0a1.11 1.11 0 0 0-1.1-1.1h0c-.6 0-1 .4-1 1.1h0c-.1.6.4 1 1 1h0 0zm.9 7.5v-6.8h-1.8v6.8h1.8zm5.1 0l2.1-6.8H170l-.9 3.3c-.2.6-.3 1.2-.5 1.8h0c-.2-.6-.3-1.2-.4-1.8l-.9-3.3h-2l2.2 6.8h2.2 0zm5.7.2c.9 0 1.8-.2 2.6-.8l-.8-1.4c-.5.4-.9.6-1.5.6-1.2 0-1.7-.6-1.7-1.7h4c0-.4.2-.8.2-1.2.2-1.3-.9-2.6-2.2-2.7h-.4c-2 0-3.2 1.4-3.2 3.4-.3 2.6.9 3.8 3 3.8h0 0zm.9-4.2h-2.4c0-.8.4-1.3 1.2-1.3h.2c.8 0 1.1.4 1.1 1.2v.1h-.1 0 0z" fill="#fff"/></g><g transform="translate(-365.5 -138.5)"><linearGradient id="B" gradientUnits="userSpaceOnUse" x1="6420.109" y1="77.064" x2="6421.015" y2="77.751" gradientTransform="matrix(107 0 0 -24 -686565 2084.4053)"><stop offset="0" stop-color="#5abfb3"/><stop offset="1" stop-color="#5988bf"/></linearGradient><path d="M395.3 212.7h103c1.1 0 1.9.9 1.9 2v19.9c0 1.1-.9 2-1.9 2h-103c-1.1 0-1.9-.9-1.9-2v-19.8c0-1.2.9-2.1 1.9-2.1z" fill="url(#B)"/><linearGradient id="C" gradientUnits="userSpaceOnUse" x1="6404.979" y1="77.936" x2="6404.456" y2="76.936" gradientTransform="matrix(29 0 0 -24 -185353.2812 2084.4053)"><stop offset="0" stop-color="#58a7b8"/><stop offset="1" stop-color="#58bcb3"/></linearGradient><path d="M371.3 212.7h27 0v24h0-27c-1.1 0-1.9-.9-1.9-2v-19.9c0-1.2.9-2.1 1.9-2.1z" fill="url(#C)"/><g fill="#fff"><path d="M390.4 221.4v-1c0-.3-.1-.5-.5-.5h0c-1.9.1-3.7-.6-5.1-1.9-.1-.2-.4-.2-.7 0-1.3 1.3-3.1 1.9-5.1 1.9-.3 0-.4.1-.4.5h0v1c0 3.6-.1 8.5 5.8 10.5h.1.2c5.8-1.9 5.7-6.9 5.7-10.5zm-6.5 5c-.2.1-.3.1-.3.1h0c-.2 0-.3 0-.3-.1l-1.6-1.8.7-.8 1.2 1.5 2.7-2.7.7.8-3.1 3h0zm26.8-4.4c0-.4-.2-.7-.5-.9s-.7-.3-1.2-.3c-.4 0-.8.1-1 .3s-.4.5-.4.8c0 .2.1.4.4.6.3.1.8.3 1.6.5 1.2.3 2 .6 2.4.9s.6.9.6 1.7-.3 1.4-.9 1.8c-.6.5-1.4.7-2.5.7-1 0-1.9-.2-2.4-.7-.6-.5-.9-1.2-.9-2.1h1.7c0 .4.2.8.5 1s.7.4 1.3.4 1-.1 1.3-.3.5-.4.5-.7-.1-.5-.3-.7c-.2-.1-.7-.3-1.4-.5-1.3-.3-2.2-.6-2.6-.9s-.7-.9-.7-1.6.3-1.4.9-1.9 1.4-.7 2.4-.7c.9 0 1.7.2 2.3.7s.9 1.1 1 2l-2.1-.1h0 0zm5.3 5.9c-.7 0-1.4-.3-1.9-.9s-.7-1.3-.7-2.3.2-1.8.7-2.4 1.1-.9 2-.9c.7 0 1.2.3 1.6.9.1.1.1.2.2.3v-1h1.5v8.5h-.8-.8V227c-.5.6-1 .9-1.8.9h0zm.5-5c-.4 0-.8.2-1 .5s-.4.8-.4 1.4.1 1 .4 1.4c.2.3.6.5 1 .5s.8-.2 1-.5.4-.8.4-1.4-.1-1-.4-1.3c-.3-.4-.6-.6-1-.6z"/><use xlink:href="#F"/><path d="M429.3 227.9c-.6 0-1-.2-1.4-.5-.3-.3-.5-.8-.5-1.3 0-.6.2-1 .5-1.3s.8-.5 1.4-.6l1.1-.1c.3 0 .5-.1.7-.2.1 0 .1-.1.2-.2 0-.1.1-.2 0-.3 0-.2-.1-.3-.3-.4s-.4-.2-.8-.2c-.3 0-.5.1-.7.2-.2.2-.3.4-.3.6h-1.5c0-.7.3-1.3.7-1.6.5-.4 1.1-.5 2-.5.8 0 1.4.2 1.8.5s.7.8.7 1.3v3.4c0 .3 0 .5.1.6 0 .1.1.2.3.3h0v.2h-.9-.9 0c-.1-.2-.1-.5-.1-.7h0c-.6.5-1.3.8-2.1.8h0zm1.9-2.4v-.7c-.2.1-.4.2-.7.3l-.6.1c-.3.1-.5.1-.6.3-.1.1-.2.3-.2.5s.1.4.2.6c.1.1.3.2.6.2.5 0 .9-.2 1.2-.5.1-.1.1-.2.2-.3-.1-.2-.1-.3-.1-.5z"/><use xlink:href="#G"/><path d="M441.1 227.9c-.9 0-1.6-.3-2.1-.9s-.8-1.4-.8-2.4.3-1.7.8-2.3 1.2-.8 2.1-.8 1.7.3 2.2.8c.5.6.8 1.4.8 2.4v.4h-4.2c0 .5.1.8.3 1.1s.6.4 1.1.4c.2 0 .5-.1.7-.2s.3-.3.4-.5h1.6c-.1.6-.5 1.1-1 1.5s-1.1.5-1.9.5zm1.3-3.8c0-.4-.1-.7-.3-.9-.2-.3-.5-.4-1-.4-.4 0-.7.2-.9.5-.1.2-.2.5-.3.8h2.5 0 0zm8.3-4.6h1 1l2.9 8.3h-.9-.9l-.6-1.7h-3.1l-.5 1.7h-.9-.9l2.9-8.3h0zm-.1 5.2h2.2l-1.1-3.3h0l-1.1 3.3zm9.5-1.2c0-.2-.1-.4-.3-.6-.2-.1-.5-.2-.8-.2s-.6.1-.7.2c-.2.1-.3.3-.3.4s.1.3.3.3c.2.1.5.2 1 .3 1 .2 1.6.5 2 .7s.5.7.5 1.2c0 .6-.2 1.1-.7 1.4-.5.4-1.1.5-1.9.5-.9 0-1.7-.2-2.2-.5-.5-.4-.8-.9-.8-1.6h1.6c0 .3.1.5.4.7.2.2.6.2 1 .2.3 0 .6-.1.8-.2a.55.55 0 0 0 .3-.5c0-.1-.1-.3-.3-.4s-.5-.2-.9-.3c-1-.2-1.7-.5-2.1-.7-.3-.3-.5-.7-.5-1.2 0-.6.2-1.1.7-1.5s1-.6 1.8-.6 1.5.2 2 .5c.5.4.8.8.8 1.4h-1.7v.5h0zm6.4 0c0-.2-.1-.4-.3-.6s-.5-.2-.8-.2-.6.1-.7.2c-.2.1-.3.3-.3.4s.1.3.3.3c.2.1.5.2 1 .3 1 .2 1.6.5 2 .7.3.3.5.7.5 1.2 0 .6-.2 1.1-.7 1.4-.5.4-1.1.5-1.9.5-.9 0-1.7-.2-2.2-.5-.5-.4-.8-.9-.8-1.6h1.6c0 .3.1.5.4.7.2.2.6.2 1 .2.3 0 .6-.1.8-.2a.55.55 0 0 0 .3-.5c0-.1-.1-.3-.3-.4s-.5-.2-.9-.3c-1-.2-1.7-.5-2.1-.7-.3-.3-.5-.7-.5-1.2 0-.6.2-1.1.7-1.5s1-.6 1.8-.6 1.5.2 2 .5.8.8.8 1.4h-1.7v.5h0z"/><use xlink:href="#F" x="48.6"/><use xlink:href="#G" x="42.2"/><path d="M483.3 227.9c-.9 0-1.6-.3-2.1-.9s-.8-1.4-.8-2.4.3-1.7.8-2.3 1.2-.8 2.1-.8 1.7.3 2.2.8c.5.6.8 1.4.8 2.4v.4h-4.2c0 .5.1.8.3 1.1s.6.4 1.1.4c.2 0 .5-.1.7-.2s.3-.3.4-.5h1.6c-.1.6-.5 1.1-1 1.5s-1.1.5-1.9.5zm1.2-3.8c0-.4-.1-.7-.3-.9-.2-.3-.5-.4-1-.4-.4 0-.7.2-.9.5-.1.2-.2.5-.3.8h2.5 0 0zm5 3.8c-.7 0-1.4-.3-1.9-.9s-.7-1.4-.7-2.4c0-.9.2-1.7.7-2.3s1.2-.9 1.9-.9 1.3.3 1.7.9l.1.1v-2.9h.8.8v8.3h-.8-.8v-.8h0c-.5.6-1 .9-1.8.9h0zm.5-5c-.4 0-.8.2-1 .5s-.4.8-.4 1.4.1 1 .4 1.4c.2.3.6.5 1 .5s.8-.2 1-.5.4-.8.4-1.4-.1-1-.4-1.3c-.3-.4-.6-.6-1-.6z"/></g><path d="M398.3,212.7v24" fill="none" stroke="#feefed"/></g><circle cx="113.484" cy="23.4" r="21" fill="#d1f4ef"/><path d="M106.084 31V16.6h14.4v11.3h-4v2h-5.7V31h-4.7z" fill="#a0e6dd"/><path d="M122.984 14.45c0-.2-.1-.3-.3-.3h-19.3c-.2 0-.3.1-.3.3v19.3c0 .2.1.3.3.3h19.3c.2 0 .3-.1.3-.3v-19.3zm-19.3 19.1v-18.7h18.7v18.7h-18.7zm16.801-10.7v-5.9c0-.2-.1-.3-.3-.3h-7.2-7.2c-.2 0-.3.1-.3.3h0v5.9 4.7 3.7c0 .2.1.3.3.3h4.7c.2 0 .3-.1.3-.3v-.6h5c.5 0 .9-.4.9-.9v-1.2h3.4c.2 0 .3-.1.3-.3l.1-5.4zm-3.8-5.6v2.5c0 .2.1.3.3.3s.3-.1.3-.3v-2.5h2.5v5.3h-2.5v-.9c0-.2-.1-.3-.3-.3s-.3.1-.3.3v.9h-.6-1.9-.9v-5.3h3.4zm-.9 7.8c-.7-.1-1.2-.8-1.3-1.5v-.3h.8.4l.1 1.8zm-3.1-2.5h-1.2v-.3c0-.7.5-1.4 1.2-1.5v1.8zm-6.5 8.5v-3.1h1.2c.2 0 .3-.1.3-.3s-.1-.3-.3-.3h-1.2v-4.1h1 1.2v.3c0 1.1.8 2 1.9 2.2v3.2 1.5.6h-4.1zm2.8-7.8h1.2v1.8c-.7-.1-1.2-.8-1.2-1.5v-.3zm-2.8-.6v-5.3h2.5v1.2c0 .2.1.3.3.3s.3-.1.3-.3v-1.2h3.4v2.8c-1.1.1-1.9 1.1-1.9 2.1v.3l-4.6.1zm9.6 7.4h-5v-.4-1.1h5.3v1.2c.1.2-.1.3-.3.3h0 0zm-5-2.1v-.8-3.9h3.2v.3a2.22 2.22 0 0 0 2.2 2.2c.2 0 .3-.1.3-.3v-2.2h.6 2.8v4.7h-9.1zm9.678 2.073c0-.5-.4-.9-.9-.9h-1.2c-.5 0-.9.4-.9.9v1.2c0 .2.1.3.3.3h2.5c.2 0 .3-.1.3-.3l-.1-1.2zm-2.5 1v-.9c0-.2.1-.3.3-.3h1.2c.3-.1.4.1.4.2v.9l-1.9.1z" fill="#3c2b64"/><circle cx="23.484" cy="23.4" r="21" fill="#f7e2ef"/><path d="M14.384 19.85l2.6-4.7v-1.7h13.5c.3.5.5 1 .6 1.5l2.5 4.9s-.4 2.7-1.6 2.5c-.7-.1-1.3-.5-1.7-1.1-.5.4-1 .8-1.6 1.1-.5-.3-1.1-.7-1.5-1.1l-1.7 1.1-1.5-1.1-1.7 1.1-1.4-1.1-1.7 1.1-1.6-1.1-1.9 1.1-1.3-1.1v-1.4z" fill="#ffc4e9"/><path d="M30.243 29.791c-.2 0-.4.2-.4.4s.2.4.4.4.4-.2.4-.4h0c0-.2-.2-.4-.4-.4zm1.141-14.741v-.7c0-.6-.5-1.2-1.2-1.2h-12.4c-.6 0-1.2.5-1.2 1.2v.7l-2.6 4.7h0v.8c0 .7.4 1.3 1 1.7v10.5c0 .2.2.4.4.4h17.2c.2 0 .4-.2.4-.4h0v-10.5c.6-.3 1-1 1-1.7v-.8h0c0-.2 0-.1-2.6-4.7zm1.6 4.4h-2.5l-1.3-3.9h1.6l2.2 3.9zm-5.5.7h2.3v.4c0 .6-.5 1.2-1.2 1.2-.5 0-1.1-.5-1.1-1.2v-.4zm0-.7l-.7-3.9h1.6l1.3 3.9h-2.2zm-10.1-5.1c0-.2.2-.4.4-.4h0 12.5c.2 0 .4.2.4.4h0v.4h-13.3v-.4zm9.3 5.8v.4c0 .6-.5 1.2-1.2 1.2-.6 0-1.2-.5-1.2-1.2v-.4h2.4zm-2.3-.7v-3.9h1.6l.7 3.9h-2.3zm-3 0l.7-3.9h1.6v3.9h-2.3zm2.2.7v.4c0 .7-.5 1.2-1.1 1.2-.7 0-1.2-.5-1.2-1.2v-.4h2.3zm-5.3-.7l1.3-3.9h1.6l-.6 3.9h-2.3zm2.2.7v.4c0 .7-.5 1.2-1.2 1.2s-1.1-.5-1.1-1.2v-.4h2.3zm-3.3-4.7h1.6l-1.3 4h-2.4l2.1-4zm-2.4 5.1v-.4h2.6v.4c-.1.7-.6 1.2-1.3 1.2-.2 0-.4 0-.5-.1-.5-.2-.8-.6-.8-1.1zm7.3 11.8h-3.9v-3.4h3.9v3.4zm0-4.1h-3.9v-3.4h3.9v3.4zm10.1 4.1h-9.4v-7.9c0-.2-.2-.4-.4-.4h-4.6c-.3 0-.4.2-.4.4v7.9h-1.6v-9.8h.3c.5 0 1-.2 1.4-.6.1-.1.2-.1.3-.2.6.8 1.8 1 2.7.4.1-.1.3-.2.4-.4.6.9 1.9 1 2.7.4.2-.1.3-.3.4-.4.6.9 1.9 1 2.7.4.1-.1.3-.2.4-.4.6.9 1.9 1 2.7.4.2-.1.3-.3.4-.4.1.1.1.2.2.3.4.4.9.6 1.4.6h.3l.1 9.7zm1-11.8c0 .5-.3.9-.8 1.1-.1.1-.3.1-.5.1-.7 0-1.2-.5-1.3-1.2v-.4h2.6v.4zm-2.109 7.638h-.4v-3.8c0-.2-.2-.4-.4-.4h-4.7c-.2 0-.4.2-.4.4v3.8h-.4c-.2 0-.4.2-.4.4s.2.4.4.4h6.2c.2 0 .4-.2.4-.4s-.1-.3-.3-.4h0zm-1.2 0h-3.9v-3.4h3.9v3.4zm-1.219 1.603h-3.1c-.2 0-.4.2-.4.4s.2.4.4.4h3.1c.2 0 .4-.2.4-.4s-.2-.4-.4-.4z" fill="#3c2b64"/><circle cx="68.784" cy="23.4" r="21" fill="#e8f4ff"/><path d="M60.784 13.4h10v19h-10z" fill="#b2daff"/><g fill="#3c2b64"><path d="M79.884 32.5h-2.2V18.9c0-.2-.2-.4-.4-.4h0-6.2v-4.8c0-.2-.2-.4-.4-.4h-9.5c-.2 0-.4.2-.4.4h0v18.7h-2.2c-.2 0-.4.1-.4.3s.1.4.3.4h0 21.3c.2 0 .4-.1.4-.3.1-.1-.1-.3-.3-.3h0zm-9.5 0h-8.8V14.1h8.8v18.4zm6.6 0h-5.9V19.3h5.9v13.2z"/><use xlink:href="#H"/><use xlink:href="#I"/><use xlink:href="#J"/><path d="M66.684 22.9h2.2c.2 0 .4-.2.4-.4h0v-2.1c0-.2-.2-.4-.4-.4h0-2.2c-.2 0-.4.2-.4.4h0v2.2c0 .2.2.3.4.3h0zm.4-2.2h1.5v1.5h-1.5v-1.5z"/><use xlink:href="#K"/><path d="M66.684 26.6h2.2c.2 0 .4-.2.4-.4h0V24c0-.2-.2-.4-.4-.4h0-2.2c-.2 0-.4.2-.4.4h0v2.2c0 .2.2.4.4.4h0zm.4-2.2h1.5v1.5h-1.5v-1.5z"/><use xlink:href="#K" y="11"/><use xlink:href="#H" x="-9.9"/><path d="M62.984 19.3h2.2c.2 0 .4-.2.4-.4v-2.2c0-.2-.2-.4-.4-.4h-2.2c-.2 0-.4.2-.4.4v2.2c.1.2.2.4.4.4zm.4-2.2h1.5v1.5h-1.5v-1.5z"/><use xlink:href="#I" x="-9.9"/><use xlink:href="#J" x="-9.9"/></g><linearGradient id="D" gradientUnits="userSpaceOnUse" x1="3294.014" y1="-105.649" x2="3294.918" y2="-104.964" gradientTransform="matrix(68 0 0 -24 -223873.6562 -2465.0947)"><stop offset="0" stop-color="#5288c7"/><stop offset="1" stop-color="#425aa8"/></linearGradient><path d="M125 48.4h64c1.1 0 1.9.9 1.9 2v20c0 1.1-.9 2-1.9 2h-64c-1.1 0-1.9-.9-1.9-2V50.6c0-1.3.9-2.2 1.9-2.2z" fill="url(#D)"/><linearGradient id="E" gradientUnits="userSpaceOnUse" x1="3302.849" y1="-104.773" x2="3302.327" y2="-105.772" gradientTransform="matrix(29 0 0 -24 -95661.7812 -2465.0947)"><stop offset="0" stop-color="#4562ad"/><stop offset="1" stop-color="#4b7fc1"/></linearGradient><path d="M101 48.3h27 0v24h0-27c-1.1 0-1.9-.9-1.9-2V50.4c0-1.2.9-2.1 1.9-2.1z" fill="url(#E)"/><g fill="#fff"><path d="M116.9 53.3h-6.6c-.6 0-1.1.4-1.2.9v11.5c0 .8 1.1 1.2 1.8.2l2.7-3.6 2.7 3.6c.8 1 1.8.6 1.8-.2V54.2c-.1-.5-.6-.9-1.2-.9h0zm19.1 10V55h5.9v.7.7h-4.1v1.9h3.6v.7.7h-3.6v3.5h-1l-.8.1h0 0z"/><use xlink:href="#L"/><path d="M150.7 63.5c-.6 0-1-.2-1.4-.5-.3-.3-.5-.7-.5-1.3s.2-1 .5-1.3.8-.5 1.4-.6l1.1-.1c.3 0 .5-.1.7-.2.1 0 .1-.1.2-.2 0-.1.1-.2 0-.3 0-.2-.1-.3-.3-.4s-.4-.2-.8-.2c-.3 0-.5.1-.7.2-.2.2-.3.4-.3.6h-1.5c0-.7.3-1.3.7-1.6.5-.4 1.1-.5 2-.5.8 0 1.4.2 1.8.5s.7.8.7 1.3v3.4c0 .3 0 .5.1.6 0 .1.1.2.3.3h0v.2h-.9-1 0c-.1-.2-.1-.5-.1-.7h0c-.5.5-1.2.8-2 .8h0zm1.9-2.4v-.7c-.2.1-.4.2-.7.3l-.6.1c-.3.1-.5.1-.6.3-.1.1-.2.3-.2.5s.1.4.2.6c.1.1.3.2.6.2.5 0 .9-.2 1.2-.5.1-.1.1-.2.2-.3-.1-.3-.1-.4-.1-.5h0zm5.8 2.2h-1c-.6 0-1-.1-1.2-.3s-.4-.5-.4-1v-3.7h-.8v-1.1h.8v-1.6h1.6v1.6h1v1.1h-1v3.5c0 .1 0 .2.1.3.1 0 .3.1.5.1h.3l.1 1.1h0 0 0zm2.7-2.3c0 .4.1.7.2.8s.4.3.7.3c.4 0 .7-.1 1-.4.2-.3.3-.6.3-1.1v-3.4h.8.8v6.1h-.8-.8v-.9c-.1.1-.1.2-.2.3-.4.5-1 .8-1.7.8-.6 0-1.1-.2-1.5-.6s-.5-.9-.5-1.6v-4.1h.8.8l.1 3.8h0 0zm5.4-3.8h.8.8v1.1c.1-.1.1-.2.2-.3.4-.6.9-.9 1.5-.9h.4v1.6h-.5c-.5 0-.9.1-1.1.4s-.4.6-.4 1.1v3.2h-.8-.8l-.1-6.2h0 0z"/><use xlink:href="#L" x="28.1"/><path d="M179.6 63.5c-.7 0-1.4-.3-1.9-.9s-.7-1.4-.7-2.4c0-.9.2-1.7.7-2.3s1.2-.9 1.9-.9 1.3.3 1.7.9l.1.1v-2.9h.8.8v8.3h-.8-.8v-.9h0c-.5.7-1.1 1-1.8 1h0zm.4-5.1c-.4 0-.8.2-1 .5s-.4.8-.4 1.4.1 1 .4 1.4c.2.3.6.5 1 .5s.8-.2 1-.5.4-.8.4-1.4-.1-1-.4-1.3a1.1 1.1 0 0 0-1-.6h0z"/></g><path d="M128,48.3v24" fill="none" stroke="#feefed"/><defs><path id="F" d="M422.4 225.5c0 .4.1.7.2.8s.4.3.7.3c.4 0 .7-.1 1-.4.2-.3.3-.6.3-1.1v-3.4h.8.8v6.1h-.8-.8v-.9c-.1.1-.1.2-.2.3-.4.5-1 .8-1.7.8-.6 0-1.1-.2-1.5-.6s-.5-.9-.5-1.6v-4.1h.8.8v3.8h.1 0z"/><path id="G" d="M434.2 221.7h.8.8v1.1c.1-.1.1-.2.2-.3.4-.6.9-.9 1.5-.9h.4v1.6h-.5c-.5 0-.9.1-1.1.4s-.4.6-.4 1.1v3.2h-.8-.8v-6.2h-.1 0z"/><path id="H" d="M72.884 22.9h2.2c.2 0 .4-.2.4-.4h0v-2.1c0-.2-.2-.4-.4-.4h0-2.2c-.2 0-.4.2-.4.4h0v2.2c.1.2.2.3.4.3h0zm.4-2.2h1.5v1.5h-1.5v-1.5z"/><path id="I" d="M72.884 26.6h2.2c.2 0 .4-.2.4-.4h0V24c0-.2-.2-.4-.4-.4h0-2.2c-.2 0-.4.2-.4.4h0v2.2c.1.2.2.4.4.4h0zm.4-2.2h1.5v1.5h-1.5v-1.5z"/><path id="J" d="M72.884 30.3h2.2c.2 0 .4-.2.4-.4h0v-2.2c0-.2-.2-.4-.4-.4h0-2.2c-.2 0-.4.2-.4.4h0v2.2c.1.2.2.4.4.4h0zm.4-2.2h1.5v1.5h-1.5v-1.5z"/><path id="K" d="M66.684 19.3h2.2c.2 0 .4-.2.4-.4h0v-2.2c0-.2-.2-.4-.4-.4h0-2.2c-.2 0-.4.2-.4.4h0v2.2c0 .2.2.4.4.4h0zm.4-2.2h1.5v1.5h-1.5v-1.5z"/><path id="L" d="M145.3 63.5c-.9 0-1.6-.3-2.1-.9s-.8-1.4-.8-2.4.3-1.7.8-2.3 1.2-.8 2.1-.8 1.7.3 2.2.8c.5.6.8 1.4.8 2.4v.4h-4.2c0 .5.1.8.3 1.1s.6.4 1.1.4c.2 0 .5-.1.7-.2s.3-.3.4-.5h1.6c-.1.6-.5 1.1-1 1.5-.5.3-1.2.5-1.9.5zm1.2-3.9c0-.4-.1-.7-.3-.9-.2-.3-.5-.4-1-.4-.4 0-.7.2-.9.5-.1.2-.2.5-.3.8h2.5 0 0 0z"/></defs></svg>